<?xml version="1.0" standalone="no"?>
<!DOCTYPE svg PUBLIC "-//W3C//DTD SVG 20010904//EN"
 "http://www.w3.org/TR/2001/REC-SVG-20010904/DTD/svg10.dtd">
<svg version="1.0" xmlns="http://www.w3.org/2000/svg"
 width="204.000000pt" height="204.000000pt" viewBox="0 0 204.000000 204.000000"
 preserveAspectRatio="xMidYMid meet">
<metadata>
Created by potrace 1.14, written by Peter Selinger 2001-2017
</metadata>
<g transform="translate(0.000000,204.000000) scale(0.100000,-0.100000)"
fill="#000000" stroke="none">
<path d="M940 1770 c0 -66 -3 -120 -6 -120 -3 0 -42 22 -87 48 -142 84 -127
86 -127 -11 l0 -83 110 -63 110 -62 0 -155 c0 -86 -4 -154 -9 -154 -5 0 -67
33 -138 74 l-128 74 -3 123 -3 124 -64 38 c-35 20 -66 37 -68 37 -2 0 -7 -51
-11 -112 -4 -62 -9 -115 -11 -117 -3 -2 -10 1 -17 6 -7 6 -52 33 -100 61 l-87
51 -35 -64 c-20 -35 -36 -68 -36 -73 0 -6 45 -36 99 -68 55 -32 98 -61 95 -65
-2 -4 -49 -32 -104 -63 -55 -32 -100 -59 -100 -60 0 -5 137 -86 144 -86 3 0
51 27 107 60 55 33 106 60 112 60 22 0 269 -152 261 -160 -13 -11 -254 -150
-261 -150 -4 0 -54 28 -111 62 l-105 62 -52 -28 c-109 -60 -110 -54 9 -121 58
-33 106 -62 106 -65 0 -3 -47 -32 -105 -64 l-105 -60 27 -45 c15 -25 33 -58
42 -72 l15 -26 100 59 101 58 6 -57 c4 -32 7 -84 8 -116 l1 -58 70 38 70 38 0
125 0 125 68 37 c37 21 100 56 140 78 l72 41 0 -159 0 -158 -110 -63 -110 -62
0 -84 0 -84 95 55 c52 30 102 57 110 60 13 5 15 -12 15 -115 l0 -121 80 0 80
0 0 120 c0 71 4 120 10 120 5 0 48 -23 94 -50 125 -74 116 -75 116 18 l0 81
-107 63 -108 64 -3 144 c-1 79 0 150 2 157 4 8 50 -13 143 -65 l138 -78 0
-122 0 -122 65 -39 c78 -48 78 -48 79 92 1 53 4 97 7 97 3 0 48 -25 99 -55 52
-30 98 -55 104 -55 5 0 26 30 47 67 43 77 49 66 -83 139 -46 25 -83 48 -83 52
0 4 45 34 100 66 55 31 100 61 100 64 0 7 -115 74 -136 80 -6 2 -59 -25 -117
-59 l-106 -61 -79 45 c-44 26 -105 61 -136 80 l-56 34 130 77 c71 42 134 76
140 76 6 0 57 -27 115 -61 l104 -61 65 37 c36 20 68 41 71 45 3 5 -39 35 -94
67 -56 32 -101 61 -101 65 0 4 45 32 100 63 55 32 100 60 100 63 0 14 -72 132
-81 132 -6 0 -53 -25 -104 -55 -52 -30 -96 -55 -99 -55 -3 0 -6 44 -7 98 -1
140 -1 140 -80 92 l-66 -39 5 -119 5 -119 -136 -77 c-74 -42 -140 -76 -146
-76 -7 0 -11 49 -11 153 l0 153 110 63 110 62 0 84 0 84 -95 -55 c-52 -30
-102 -57 -110 -60 -13 -5 -15 12 -15 115 l0 121 -80 0 -80 0 0 -120z"/>
</g>
</svg>
